<svg id="Group_25545" data-name="Group 25545" xmlns="http://www.w3.org/2000/svg" width="18.78" height="22.861" viewBox="0 0 18.78 22.861">
  <path id="Path_14197" data-name="Path 14197" d="M652.85,115.51q0-2.335,0-4.669a.721.721,0,0,1,1.421-.2.967.967,0,0,1,.023.245q0,4.624,0,9.248a.726.726,0,1,1-1.445,0q0-2.312,0-4.624" transform="translate(-640.575 -100.848)" fill="#707070"/>
  <path id="Path_14198" data-name="Path 14198" d="M611.3,115.565q0,2.323,0,4.647a.722.722,0,0,1-1.421.206.971.971,0,0,1-.023-.245q0-4.624,0-9.248a.726.726,0,1,1,1.445-.006q0,2.323,0,4.647" transform="translate(-601.189 -100.885)" fill="#707070"/>
  <path id="Path_14199" data-name="Path 14199" d="M566.851,115.511q0-2.335,0-4.669a.722.722,0,0,1,1.422-.2.973.973,0,0,1,.022.245q0,4.624,0,9.248a.726.726,0,1,1-1.445,0q0-2.312,0-4.624" transform="translate(-561.796 -100.849)" fill="#707070"/>
  <path id="Path_14200" data-name="Path 14200" d="M523.665,2.75c-1.248-.007-2.5,0-3.744,0h-.273c0-.223,0-.431,0-.639A2.149,2.149,0,0,0,518.233,0h-4.386a2.352,2.352,0,0,0-1.4,2.748h-.267q-1.839,0-3.678,0A1.8,1.8,0,0,0,506.65,4.6q0,1.185,0,2.369a.737.737,0,0,0,.831.831h.278c.019.319.04.617.054.915.081,1.742.157,3.485.24,5.227q.123,2.579.254,5.158c.03.616.039,1.233.095,1.847a2.092,2.092,0,0,0,1.508,1.91h12.266a3.477,3.477,0,0,0,.581-.292,2.155,2.155,0,0,0,.939-1.805q.095-2.083.193-4.167.1-2.162.21-4.324.077-1.622.151-3.243c.018-.4.038-.794.059-1.227.147,0,.273,0,.4,0a.712.712,0,0,0,.712-.7c.007-.887.017-1.775,0-2.661a1.789,1.789,0,0,0-1.753-1.693m-9.778-.84a.694.694,0,0,1,.686-.6q1.464-.011,2.928,0a.708.708,0,0,1,.7.667c.015.246,0,.494,0,.764h-4.32a7.565,7.565,0,0,1,.006-.83m8.955,6.348q-.155,3.289-.313,6.578-.137,2.872-.274,5.744c0,.075-.01.15-.019.225a.725.725,0,0,1-.79.716q-1.749,0-3.5,0h-7.265c-.541,0-.818-.234-.85-.772-.064-1.088-.107-2.177-.16-3.266q-.1-2.185-.21-4.37-.077-1.622-.151-3.244c-.032-.676-.064-1.351-.1-2.054h13.626c0,.149.006.3,0,.443m1.137-1.916H508.1c0-.6,0-1.189,0-1.775a.356.356,0,0,1,.37-.371c.06,0,.12,0,.18,0h14.777c.456,0,.552.1.552.554,0,.526,0,1.051,0,1.593" transform="translate(-506.65)" fill="#707070"/>
</svg>
