<svg xmlns="http://www.w3.org/2000/svg" width="20.83" height="20.829" viewBox="0 0 20.83 20.829">
  <g id="Group_25512" data-name="Group 25512" transform="translate(0 0)">
    <path id="Path_14195" data-name="Path 14195" d="M17.11,30.989a.744.744,0,0,0-.744.744v7.439a.744.744,0,0,1-.744.744H2.232a.744.744,0,0,1-.744-.744V24.294a.744.744,0,0,1,.744-.744h8.927a.744.744,0,1,0,0-1.488H2.232A2.232,2.232,0,0,0,0,24.294V39.171A2.232,2.232,0,0,0,2.232,41.4h13.39a2.232,2.232,0,0,0,2.232-2.232V31.732a.744.744,0,0,0-.744-.744" transform="translate(0 -20.574)" fill="#707070"/>
    <path id="Path_14196" data-name="Path 14196" d="M65.628,6.2a2.847,2.847,0,0,0-4.028,0L51.8,16a.752.752,0,0,0-.179.291L50.134,20.75a.744.744,0,0,0,.705.979.755.755,0,0,0,.235-.038L55.538,20.2a.745.745,0,0,0,.291-.18l9.8-9.8a2.848,2.848,0,0,0,0-4.027M64.575,9.174,54.9,18.845l-2.889.965.962-2.886,9.674-9.671a1.359,1.359,0,1,1,1.924,1.921" transform="translate(-45.632 -5.364)" fill="#707070"/>
  </g>
</svg>
